# Blender v2.92.0 OBJ File: 'Water.blend'
# www.blender.org
mtllib Water.mtl
o Plane.004_Plane.016
v 1.000000 -0.093706 -1.000000
v -1.000000 -0.121182 -1.000000
v 1.000000 0.012833 1.000000
v -1.000000 -0.038942 1.000000
v 1.000000 -0.003932 0.000000
v 0.000000 -0.107437 -1.000000
v -1.000000 -0.075092 0.000000
v 0.000000 0.009472 1.000000
v 0.000000 -0.054373 0.000000
v 1.000000 -0.026151 -0.500000
v -0.500000 -0.030334 -1.000000
v -1.000000 -0.100264 0.500000
v 0.500000 -0.071682 1.000000
v 1.000000 -0.087238 0.500000
v 0.500000 -0.052516 -1.000000
v -1.000000 -0.097885 -0.500000
v -0.500000 -0.146263 1.000000
v 0.000000 -0.041216 0.500000
v 0.000000 -0.065589 -0.500000
v 0.500000 -0.070215 0.000000
v -0.500000 -0.059727 0.000000
v -0.500000 -0.096474 -0.500000
v 0.500000 -0.082548 -0.500000
v 0.500000 -0.008791 0.500000
v -0.500000 -0.031998 0.500000
v 1.000000 -0.066516 -0.750000
v -0.750000 0.025471 -1.000000
v -1.000000 -0.078258 0.750000
v 0.750000 -0.075960 1.000000
v 1.000000 -0.022619 0.250000
v 0.250000 0.029300 -1.000000
v -1.000000 -0.104293 -0.250000
v -0.250000 -0.017651 1.000000
v 0.000000 0.057480 0.750000
v 0.000000 -0.099788 -0.250000
v 0.750000 -0.037396 0.000000
v -0.250000 0.056149 0.000000
v 1.000000 -0.066716 -0.250000
v -0.250000 -0.171035 -1.000000
v -1.000000 -0.079908 0.250000
v 0.250000 0.011123 1.000000
v 1.000000 0.015367 0.750000
v 0.750000 -0.097313 -1.000000
v -1.000000 -0.135469 -0.750000
v -0.750000 -0.044053 1.000000
v 0.000000 -0.075163 0.250000
v 0.000000 -0.050294 -0.750000
v 0.250000 -0.169449 0.000000
v -0.750000 -0.153773 0.000000
v -0.500000 -0.076427 -0.250000
v -0.500000 0.066363 -0.750000
v -0.250000 -0.048472 -0.500000
v -0.750000 -0.113645 -0.500000
v 0.500000 -0.092536 -0.250000
v 0.500000 -0.000978 -0.750000
v 0.750000 -0.062724 -0.500000
v 0.250000 -0.012630 -0.500000
v 0.500000 -0.067574 0.750000
v 0.500000 -0.022944 0.250000
v 0.750000 -0.131997 0.500000
v 0.250000 -0.069787 0.500000
v -0.500000 -0.060251 0.750000
v -0.500000 -0.097172 0.250000
v -0.250000 0.004769 0.500000
v -0.750000 -0.171701 0.500000
v -0.750000 -0.134472 0.250000
v -0.250000 0.025294 0.250000
v -0.250000 0.074439 0.750000
v 0.250000 -0.082928 0.250000
v 0.750000 0.024543 0.250000
v 0.750000 -0.125676 0.750000
v 0.250000 0.005174 -0.750000
v 0.750000 -0.059123 -0.750000
v 0.750000 -0.063897 -0.250000
v -0.750000 -0.052669 -0.750000
v -0.250000 -0.061659 -0.750000
v -0.250000 -0.038290 -0.250000
v -0.750000 -0.102627 -0.250000
v 0.250000 -0.146899 -0.250000
v 0.250000 -0.017936 0.750000
v -0.750000 -0.122996 0.750000
vt 0.625000 0.875000
vt 0.625000 0.750000
vt 0.750000 0.750000
vt 0.750000 0.875000
vt 0.625000 0.125000
vt 0.750000 0.125000
vt 0.750000 0.250000
vt 0.625000 0.250000
vt 0.375000 0.875000
vt 0.500000 0.875000
vt 0.500000 1.000000
vt 0.375000 1.000000
vt 0.250000 0.375000
vt 0.375000 0.375000
vt 0.375000 0.500000
vt 0.250000 0.500000
vt 0.250000 0.750000
vt 0.250000 0.875000
vt 0.125000 0.875000
vt 0.125000 0.750000
vt 0.750000 0.375000
vt 0.875000 0.375000
vt 0.875000 0.500000
vt 0.750000 0.500000
vt 0.375000 0.625000
vt 0.250000 0.625000
vt 1.000000 0.500000
vt 1.000000 0.625000
vt 0.875000 0.625000
vt 0.500000 0.500000
vt 0.625000 0.500000
vt 0.625000 0.625000
vt 0.500000 0.625000
vt 0.125000 1.000000
vt 0.250000 1.000000
vt 0.125000 0.500000
vt 0.125000 0.375000
vt 0.000000 0.375000
vt 0.000000 0.500000
vt 0.500000 0.250000
vt 0.625000 0.375000
vt 0.500000 0.375000
vt 0.250000 0.250000
vt 0.125000 0.250000
vt 0.500000 0.750000
vt 0.375000 0.750000
vt 0.750000 0.625000
vt 0.875000 0.750000
vt 0.875000 0.250000
vt 0.000000 0.250000
vt 0.500000 0.125000
vt 0.500000 0.000000
vt 0.625000 0.000000
vt 0.875000 0.875000
vt 0.250000 0.125000
vt 0.125000 0.125000
vt 0.375000 0.125000
vt 0.375000 0.250000
vt 0.000000 0.125000
vt 0.875000 0.125000
vt 0.125000 0.625000
vt 1.000000 0.750000
vt 1.000000 0.875000
vt 0.750000 0.000000
vt 0.875000 0.000000
vt 0.000000 0.625000
vt 0.000000 0.750000
vt 0.625000 1.000000
vt 0.750000 1.000000
vt 0.000000 0.000000
vt 0.125000 0.000000
vt 1.000000 0.000000
vt 1.000000 0.125000
vt 1.000000 1.000000
vt 0.875000 1.000000
vt 0.000000 1.000000
vt 0.000000 0.875000
vt 0.375000 0.000000
vt 1.000000 0.375000
vt 0.250000 0.000000
vt 1.000000 0.250000
vn -0.3234 0.9430 -0.0781
vn 0.1515 0.9469 0.2834
vn 0.1458 0.9886 0.0375
vn -0.2937 0.9559 0.0004
vn 0.3393 0.9356 0.0982
vn -0.2333 0.9701 0.0668
vn -0.2940 0.9233 -0.2471
vn 0.2574 0.9659 -0.0280
vn 0.3870 0.9172 0.0947
vn 0.1233 0.9883 -0.0901
vn -0.1214 0.9879 -0.0965
vn -0.0602 0.9826 -0.1755
vn 0.1551 0.9868 0.0474
vn 0.2367 0.9633 -0.1266
vn -0.0965 0.9951 0.0222
vn 0.0722 0.9930 -0.0935
vn -0.3332 0.9414 -0.0526
vn -0.0863 0.9944 -0.0618
vn -0.4271 0.8959 0.1224
vn 0.2810 0.9594 -0.0258
vn -0.0671 0.9943 0.0830
vn -0.1408 0.9393 -0.3128
vn -0.3024 0.9494 -0.0848
vn 0.1953 0.9391 -0.2828
vn -0.2348 0.9706 -0.0530
vn -0.3750 0.9262 -0.0379
vn 0.0753 0.9830 0.1674
vn 0.1476 0.9701 0.1928
vn -0.0227 0.9996 0.0139
vn -0.0581 0.9956 -0.0732
vn -0.2413 0.8858 0.3965
vn 0.0115 0.9999 0.0042
vn -0.2539 0.9666 0.0351
vn 0.3145 0.9142 -0.2557
vn -0.0111 0.9476 0.3193
vn -0.2880 0.9348 -0.2078
vn -0.1550 0.9652 -0.2108
vn 0.2242 0.9649 -0.1365
vn -0.1254 0.9914 -0.0368
vn 0.3083 0.9503 -0.0435
vn 0.0044 0.9145 0.4045
vn -0.4444 0.8439 0.3006
vn 0.1185 0.9410 -0.3169
vn 0.1441 0.9517 0.2710
vn 0.0299 0.9604 0.2771
vn 0.0075 0.9915 -0.1297
vn -0.4113 0.8963 0.1657
vn 0.0966 0.9686 -0.2291
vn -0.4161 0.9053 -0.0854
vn 0.0273 0.9959 -0.0861
vn -0.3581 0.9316 -0.0615
vn 0.1521 0.9874 0.0433
vn -0.0196 0.9627 0.2698
vn 0.4450 0.8280 -0.3412
vn 0.2429 0.9637 0.1110
vn 0.2558 0.9655 -0.0482
vn -0.3413 0.9184 -0.2001
vn 0.1986 0.9647 -0.1731
vn -0.1327 0.9901 0.0463
vn 0.0787 0.9968 0.0141
vn -0.1695 0.9837 -0.0595
vn -0.2115 0.9752 0.0646
vn 0.1730 0.9834 -0.0539
vn 0.0282 0.9996 -0.0092
usemtl Material.003
s off
f 68/1/1 64/2/1 25/3/1 62/4/1
f 76/5/2 51/6/2 22/7/2 52/8/2
f 80/9/3 34/10/3 8/11/3 41/12/3
f 54/13/4 79/14/4 48/15/4 20/16/4
f 24/17/5 58/18/5 71/19/5 60/20/5
f 50/21/6 78/22/6 49/23/6 21/24/6
f 69/25/7 59/26/7 20/16/7 48/15/7
f 7/27/8 40/28/8 66/29/8 49/23/8
f 9/30/9 37/31/9 67/32/9 46/33/9
f 29/34/10 71/19/10 58/18/10 13/35/10
f 36/36/11 74/37/11 54/13/11 20/16/11
f 38/38/12 74/37/12 36/36/12 5/39/12
f 19/40/13 52/8/13 77/41/13 35/42/13
f 69/25/14 48/15/14 9/30/14 46/33/14
f 23/43/15 54/13/15 74/37/15 56/44/15
f 69/25/16 46/33/16 18/45/16 61/46/16
f 25/3/17 63/47/17 66/29/17 65/48/17
f 22/7/18 53/49/18 78/22/18 50/21/18
f 67/32/19 37/31/19 21/24/19 63/47/19
f 18/45/20 46/33/20 67/32/20 64/2/20
f 74/37/21 38/38/21 10/50/21 56/44/21
f 47/51/22 6/52/22 39/53/22 76/5/22
f 67/32/23 63/47/23 25/3/23 64/2/23
f 18/45/24 34/10/24 80/9/24 61/46/24
f 24/17/25 59/26/25 69/25/25 61/46/25
f 25/3/26 65/48/26 81/54/26 62/4/26
f 55/55/27 23/43/27 56/44/27 73/56/27
f 23/43/28 55/55/28 72/57/28 57/58/28
f 24/17/29 61/46/29 80/9/29 58/18/29
f 73/56/30 56/44/30 10/50/30 26/59/30
f 22/7/31 51/6/31 75/60/31 53/49/31
f 19/40/32 47/51/32 76/5/32 52/8/32
f 66/29/33 63/47/33 21/24/33 49/23/33
f 9/30/34 35/42/34 77/41/34 37/31/34
f 19/40/35 35/42/35 79/14/35 57/58/35
f 37/31/36 77/41/36 50/21/36 21/24/36
f 70/61/37 36/36/37 20/16/37 59/26/37
f 12/62/38 28/63/38 81/54/38 65/48/38
f 51/6/39 11/64/39 27/65/39 75/60/39
f 48/15/40 79/14/40 35/42/40 9/30/40
f 30/66/41 70/61/41 60/20/41 14/67/41
f 33/68/42 68/1/42 62/4/42 17/69/42
f 68/1/43 34/10/43 18/45/43 64/2/43
f 70/61/44 59/26/44 24/17/44 60/20/44
f 23/43/45 57/58/45 79/14/45 54/13/45
f 73/56/46 26/59/46 1/70/46 43/71/46
f 75/60/47 27/65/47 2/72/47 44/73/47
f 81/54/48 28/63/48 4/74/48 45/75/48
f 71/19/49 29/34/49 3/76/49 42/77/49
f 30/66/50 5/39/50 36/36/50 70/61/50
f 72/57/51 31/78/51 6/52/51 47/51/51
f 49/23/52 78/22/52 32/79/52 7/27/52
f 68/1/53 33/68/53 8/11/53 34/10/53
f 76/5/54 39/53/54 11/64/54 51/6/54
f 66/29/55 40/28/55 12/62/55 65/48/55
f 80/9/56 41/12/56 13/35/56 58/18/56
f 42/77/57 14/67/57 60/20/57 71/19/57
f 73/56/58 43/71/58 15/80/58 55/55/58
f 53/49/59 75/60/59 44/73/59 16/81/59
f 81/54/60 45/75/60 17/69/60 62/4/60
f 22/7/61 50/21/61 77/41/61 52/8/61
f 72/57/62 47/51/62 19/40/62 57/58/62
f 15/80/63 31/78/63 72/57/63 55/55/63
f 78/22/64 53/49/64 16/81/64 32/79/64
